<svg width="81" height="40" viewBox="0 0 81 40" fill="none" xmlns="http://www.w3.org/2000/svg">
<path d="M51.0448 0C48.7876 0 47.0787 0.712108 45.9566 2.11572C44.8302 3.53043 44.2605 5.32533 44.2605 7.45021V9.91488H41.7648V13.9016H44.2605V26.4379H41.7614V30.4024H52.2526V26.4379H49.3359V13.9016H52.2526V9.91488H49.3359V7.0718C49.3359 4.20945 50.4023 3.60938 51.2932 3.60938C52.0855 3.60938 52.7066 4.28429 53.1477 5.59924C53.4347 5.34069 56.36 2.6988 56.6298 2.45238C55.4605 0.829596 53.5889 0 51.0448 0ZM0.000128511 0.296047V12.0096H3.73434V5.11889H8.59296V26.232H4.58323V30.4624H18.6948V26.232H14.6851V5.11889H19.6585C19.6585 5.11889 19.6529 8.31463 19.6525 8.69206C19.9583 8.69206 23.0309 8.69107 23.3354 8.69107V0.296047L0 0.296146L0.000128511 0.296047ZM60.7586 2.09635C60.3431 2.44059 59.2039 3.38882 59.2039 3.38882C59.2039 3.38882 55.8246 6.19262 55.679 6.31546V9.92578H53.319V13.912H55.679V25.6266C55.679 29.1047 57.0924 30.7239 60.129 30.7239C61.4267 30.7239 62.7887 30.4039 64.1721 29.7833V26.0268C63.6282 26.2096 63.1485 26.3161 62.7331 26.3161C61.9193 26.3161 61.3925 26.1105 61.1184 25.6866C60.8742 25.3037 60.7586 24.6712 60.7586 23.6964V13.912H64.1721V9.92578H60.7586V2.0964V2.09635ZM71.072 9.44082C69.0762 9.44082 67.4529 10.0332 66.2537 11.2016C65.0673 12.3557 64.4677 13.7896 64.4677 15.4638C64.4677 17.2484 65.1015 18.7016 66.3565 19.7834C67.6456 20.8949 69.7957 21.7374 72.7467 22.2892C74.2457 22.5779 75.2308 22.8786 75.7619 23.208C76.3487 23.573 76.6442 24.1025 76.6442 24.7801C76.6442 25.4938 76.3315 26.0828 75.7062 26.531C75.1237 26.9505 74.3142 27.1625 73.2992 27.1625C72.1256 27.1625 71.1191 26.8445 70.3139 26.2145C69.5644 25.6291 69.1404 24.8326 69.0376 23.8578H65.1744V30.6466H68.9948V29.1101L69.4445 29.6787C70.2069 30.6441 71.6716 31.1339 73.796 31.1339C76.1003 31.1339 77.8948 30.4841 79.1369 29.2027C80.3747 27.9293 81 26.269 81 24.2694C81 22.8637 80.6702 21.6448 80.0235 20.6452C79.3725 19.6403 78.4944 18.9102 77.4151 18.4743C76.293 18.0231 74.5755 17.5639 72.3141 17.1112C70.8279 16.8076 69.9199 16.547 69.543 16.3162C69.1061 16.0517 68.8791 15.6347 68.8791 15.1087C68.8791 13.8218 69.83 13.169 71.7059 13.169C74.0273 13.169 75.445 13.9264 75.9418 15.4098H79.7536V9.77466H76.0317V10.6568L75.672 10.483C74.2543 9.791 72.7038 9.44082 71.072 9.44082ZM19.6333 9.92276V13.9095H22.4147V24.5577C22.4147 26.528 22.885 28.0635 23.8135 29.1215C24.7425 30.1829 26.0583 30.7208 27.7243 30.7208C29.4555 30.7208 31.1944 30.0334 32.8922 28.6787L33.5582 28.1467V30.4103H40.7018V26.4458H38.6348V9.92276H30.6997V13.9095H33.5582V24.2952L33.3864 24.4423C32.1285 25.5216 30.9387 26.0684 29.853 26.0684C28.9827 26.0684 28.3569 25.8113 27.9929 25.3041C27.643 24.8182 27.4725 24.0005 27.4725 22.8053V9.92276H19.6333ZM66.7633 34.1301C66.7376 34.1301 66.6991 34.1603 66.6863 34.2673C66.6606 34.3738 66.4378 35.3797 66.3693 35.669C66.365 35.7076 66.3693 35.7304 66.395 35.7453L66.5278 35.7998C66.562 35.8151 66.5792 35.7839 66.6006 35.7453C66.7248 35.4867 66.9775 34.9835 67.1874 34.877C67.4615 34.7695 67.9412 34.7695 68.151 34.7695H68.3352V36.676C68.3352 36.8285 68.3352 39.1614 68.3138 39.3596C68.3095 39.4735 68.2281 39.5656 68.0954 39.5656H67.7227C67.697 39.5656 67.6756 39.5805 67.6756 39.6255V39.8019C67.6756 39.8549 67.6885 39.8707 67.727 39.8707C67.8212 39.8707 68.0954 39.8484 68.7678 39.8484C69.483 39.8484 69.6929 39.8707 69.7572 39.8707C69.8128 39.8707 69.8257 39.841 69.8257 39.7949V39.6345C69.8257 39.5963 69.8128 39.5656 69.7829 39.5656H69.4017C69.2432 39.5656 69.1789 39.4131 69.1789 38.8335V34.7695H69.3631C69.5987 34.7695 70.194 34.7849 70.3782 34.9067C70.5624 35.0593 70.8065 35.5481 70.9007 35.7611C70.9178 35.8067 70.9307 35.83 70.9564 35.8221L71.0892 35.7686C71.1106 35.7606 71.1234 35.7453 71.1149 35.7002C71.0635 35.3342 70.9307 34.3891 70.9178 34.2519C70.905 34.1603 70.8921 34.1301 70.8536 34.1301C70.815 34.1301 70.7851 34.1598 70.7337 34.2054C70.6352 34.2891 70.3825 34.3965 70.2583 34.4035C69.9542 34.4193 69.6801 34.4491 68.9562 34.4491H68.5965C67.954 34.4491 67.6756 34.4193 67.3201 34.4035C67.136 34.3965 67.0032 34.3584 66.8704 34.2054C66.8319 34.1598 66.8062 34.1301 66.7633 34.1301ZM54.7153 34.3351C54.3298 34.3351 54.0386 34.4421 53.7773 34.7017C53.4604 34.9914 53.3148 35.3416 53.3148 35.7686C53.3148 36.2337 53.4218 36.615 53.6446 36.8592C53.9615 37.1946 54.3984 37.408 54.6082 37.4992C55.3064 37.8043 55.5847 38.0331 55.5847 38.735C55.5847 39.368 55.0836 39.6265 54.7281 39.6265C54.3984 39.6265 54.0557 39.4438 53.8544 39.0772C53.6703 38.7424 53.6189 38.4526 53.606 38.2085C53.606 38.1629 53.5932 38.1475 53.5675 38.1475L53.4218 38.1322C53.3961 38.1322 53.3876 38.147 53.3833 38.1931C53.3662 38.2847 53.2762 39.5195 53.2634 39.6112C53.2634 39.6875 53.2891 39.734 53.3405 39.734C53.3961 39.734 53.4218 39.7182 53.4604 39.6424C53.4989 39.5661 53.5289 39.5047 53.5675 39.5047C53.606 39.5047 53.6446 39.5344 53.7216 39.5958C53.9872 39.8242 54.3041 39.9624 54.8438 39.9624C55.7175 39.9624 56.2443 39.1996 56.2443 38.2694C56.2443 37.7587 56.1244 37.4387 55.9145 37.1792C55.6618 36.8741 55.3449 36.721 54.9637 36.5843C54.6982 36.4927 54.3298 36.3109 54.1585 36.1123C54 35.9142 53.9743 35.6844 53.9743 35.4253C53.9743 35.143 54.1842 34.6551 54.7153 34.6551C55.0151 34.6551 55.225 34.7626 55.3963 34.9756C55.6361 35.2653 55.7432 35.5704 55.8075 35.7844C55.8203 35.83 55.846 35.8369 55.8717 35.8295L55.9788 35.7918C56.0045 35.7844 56.0173 35.7691 56.0173 35.7388C56.0173 35.6626 55.9145 34.5952 55.9145 34.4723C55.9145 34.3961 55.9017 34.3505 55.8589 34.3505C55.8203 34.3505 55.7946 34.3658 55.7689 34.3961L55.6833 34.4956C55.649 34.5333 55.6104 34.5486 55.5419 34.5179C55.4134 34.457 55.1479 34.3351 54.7153 34.3351ZM4.60434 34.4268C4.55209 34.4268 4.53838 34.4421 4.53838 34.4877V34.663C4.53838 34.717 4.55209 34.7319 4.59192 34.7319H4.89473C5.06605 34.7319 5.11873 34.8542 5.11873 35.1128V36.9202C5.11873 37.9187 5.14485 38.4219 5.23694 38.7583C5.36885 39.2451 5.63269 39.5958 6.01558 39.7786C6.26614 39.9014 6.64861 39.9624 6.96512 39.9624C7.46623 39.9624 7.88768 39.7791 8.16479 39.4893C8.52071 39.1233 8.67875 38.6513 8.71858 38.0257C8.74513 37.7206 8.75755 36.3941 8.75755 36.2872C8.75755 36.1881 8.75756 35.1202 8.77126 35.0286C8.78454 34.9449 8.81066 34.7319 9.04794 34.7319H9.28565C9.3182 34.7319 9.32505 34.7086 9.32505 34.663V34.4877C9.32505 34.45 9.3182 34.4268 9.25866 34.4268C9.20641 34.4268 8.99526 34.45 8.58624 34.45C8.15108 34.45 7.84828 34.4268 7.78232 34.4268C7.74291 34.4268 7.72964 34.4421 7.72964 34.4877V34.6784C7.72964 34.7086 7.74291 34.7319 7.78232 34.7319H8.01917C8.16393 34.7319 8.27015 34.8686 8.29028 35.0672C8.30998 35.242 8.36266 35.9137 8.36266 36.5234V37.8959C8.36266 38.4526 8.23032 38.895 7.97976 39.1847C7.76861 39.4131 7.39942 39.5503 7.09618 39.5503C6.7801 39.5503 6.42375 39.4284 6.19975 39.0772C6.04171 38.834 5.98946 38.4834 5.96976 38.1322C5.95605 37.889 5.94963 37.3471 5.94963 36.9662V36.0202C5.94963 35.5784 5.96248 35.1202 5.96976 35.0286C5.97618 34.8691 6.09439 34.7319 6.29227 34.7319H6.56938C6.60878 34.7319 6.6212 34.7165 6.6212 34.671V34.4803C6.6212 34.4416 6.60878 34.4268 6.56938 34.4268C6.49014 34.4268 6.17363 34.45 5.61984 34.45C4.98724 34.45 4.67073 34.4268 4.60434 34.4268ZM13.1352 34.4268C13.1091 34.4268 13.0958 34.4421 13.0958 34.4723V34.6784C13.0958 34.7096 13.1091 34.7235 13.1352 34.7319H13.3459C13.6363 34.7319 13.8603 35.0826 13.8603 35.5392V36.5081C13.8603 37.7275 13.8213 38.7959 13.8145 38.9331C13.7819 39.3982 13.689 39.5656 13.5177 39.5656H13.2941C13.2675 39.5656 13.2538 39.5963 13.2538 39.6112V39.8019C13.2538 39.8549 13.2675 39.8707 13.2941 39.8707C13.3601 39.8707 13.8081 39.8484 13.9794 39.8484C14.2299 39.8484 14.6252 39.8707 14.6912 39.8707C14.7443 39.8707 14.7439 39.8549 14.7439 39.8098V39.6345C14.7439 39.5968 14.7443 39.5656 14.6912 39.5656H14.5195C14.2826 39.5656 14.2034 39.3823 14.1901 39.0019C14.1772 38.7652 14.1241 37.6973 14.1241 36.4016V35.4709H14.164C14.2432 35.5779 15.2977 37.1029 15.3906 37.2094C15.469 37.3313 15.9838 38.048 16.4455 38.7038C16.8537 39.2679 17.2096 39.7405 17.2627 39.8172C17.315 39.8782 17.3946 39.9391 17.4867 39.9391C17.5659 39.9391 17.5655 39.8326 17.5655 39.7256V37.7131C17.5655 36.9355 17.6319 35.6541 17.6649 35.136C17.6846 34.8537 17.751 34.7319 17.8825 34.7319H18.0666C18.0928 34.7319 18.1065 34.7012 18.1065 34.6551V34.4803C18.1065 34.4575 18.0932 34.4268 18.0405 34.4268C17.9613 34.4268 17.8028 34.45 17.4075 34.45C16.9586 34.45 16.7479 34.4268 16.6687 34.4268C16.6164 34.4268 16.6168 34.4421 16.6168 34.4877V34.663C16.6168 34.7012 16.6164 34.7319 16.6562 34.7319H16.867C17.0254 34.7319 17.1702 34.8389 17.2165 35.0221C17.2494 35.1514 17.2756 35.8978 17.2884 36.1876C17.3021 36.5685 17.3021 36.9504 17.3021 37.6215V38.4145H17.276C17.1702 38.2624 16.1419 36.7825 16.0498 36.6606C15.9179 36.4476 14.6257 34.5719 14.5597 34.4956C14.5203 34.4505 14.4801 34.4268 14.4008 34.4268C14.3614 34.4268 14.3023 34.4347 14.2167 34.4347C14.1374 34.4421 14.0385 34.45 13.9267 34.45C13.6363 34.45 13.4586 34.4505 13.3404 34.4426C13.2213 34.4352 13.1686 34.4268 13.1352 34.4268ZM22.1672 34.4268C22.141 34.4268 22.1278 34.4416 22.1278 34.4803V34.6784C22.1278 34.7175 22.1415 34.7319 22.1804 34.7319H22.5235C22.7081 34.7319 22.7741 34.8077 22.7938 34.9909C22.8002 35.09 22.8139 36.4625 22.8139 36.6453V37.1792C22.8139 37.5908 22.8002 39.2377 22.7869 39.3442C22.7608 39.5503 22.616 39.5656 22.4841 39.5656H22.2207C22.1804 39.5656 22.1672 39.581 22.1672 39.6112V39.8172C22.1672 39.8549 22.1804 39.8707 22.2207 39.8707C22.2867 39.8707 22.5758 39.8484 23.2353 39.8484C23.8547 39.8484 24.1189 39.8707 24.1982 39.8707C24.238 39.8707 24.2641 39.8549 24.2641 39.8098V39.6191C24.2641 39.5815 24.238 39.5656 24.2114 39.5656H23.9339C23.7759 39.5656 23.6713 39.5349 23.6713 39.2912C23.6713 39.2075 23.6576 37.4536 23.6576 37.3773V36.7825C23.6576 36.6908 23.6713 35.0147 23.6713 34.9379C23.6713 34.7933 23.7763 34.7319 23.9215 34.7319H24.1725C24.1986 34.7319 24.2243 34.717 24.2243 34.671V34.4956C24.2243 34.458 24.2119 34.4268 24.1725 34.4268C24.0795 34.4268 23.8684 34.45 23.2353 34.45C22.589 34.45 22.2464 34.4268 22.1672 34.4268ZM28.2854 34.4268C28.2593 34.4268 28.246 34.4421 28.246 34.4877V34.663C28.246 34.7086 28.2593 34.7319 28.2854 34.7319H28.4435C28.5886 34.7319 28.6679 34.8082 28.727 34.9756C28.7994 35.1965 29.0893 36.1722 29.2606 36.7215C29.4851 37.4303 30.0397 39.1768 30.2637 39.8252C30.2967 39.9168 30.3293 40 30.4085 40C30.4612 40 30.5139 39.9624 30.54 39.9014C30.6059 39.741 31.397 37.515 31.5285 37.1792C31.7135 36.676 32.1093 35.4867 32.3268 35.083C32.4789 34.8086 32.6498 34.7319 32.8078 34.7319H32.9667C33.0061 34.7319 33.0194 34.7091 33.0194 34.671V34.4803C33.0194 34.4416 33.0061 34.4268 32.9667 34.4268C32.9136 34.4268 32.7423 34.45 32.1885 34.45C31.7662 34.45 31.463 34.4268 31.4107 34.4268C31.3709 34.4268 31.358 34.4421 31.358 34.4877V34.663C31.358 34.7012 31.3777 34.7319 31.4039 34.7319H31.582C31.7662 34.7319 31.8322 34.8537 31.8322 34.9454C31.8322 35.2584 31.4231 36.4085 31.3178 36.7671C31.2518 36.9959 30.8304 38.262 30.6719 38.6884V38.7038H30.6586C30.5533 38.2922 30.1973 37.0876 30.1048 36.7978C29.9733 36.356 29.7228 35.456 29.6765 35.1816C29.6568 35.0746 29.6564 34.983 29.6564 34.9221C29.6564 34.8082 29.7622 34.7319 29.9335 34.7319H30.2504C30.2899 34.7319 30.3031 34.7086 30.3031 34.6551V34.4877C30.3031 34.45 30.2899 34.4268 30.2372 34.4268C30.1845 34.4268 29.8808 34.45 29.2606 34.45C28.5749 34.45 28.3518 34.4268 28.2854 34.4268ZM36.8432 34.4268C36.8098 34.4268 36.8038 34.4416 36.8038 34.4803V34.6784C36.8038 34.717 36.8163 34.7319 36.8432 34.7319H37.0934C37.2912 34.7319 37.3572 34.7923 37.3833 34.9988C37.397 35.1053 37.4095 36.0504 37.4095 36.675V37.4229V39.2377C37.4095 39.52 37.3838 39.5656 37.0805 39.5656H36.8557C36.803 39.5656 36.7906 39.581 36.7906 39.6265V39.8098C36.7906 39.8554 36.8034 39.8707 36.8432 39.8707C36.9615 39.8707 37.1987 39.8474 37.687 39.8474C39.8893 39.8474 40.4028 39.8707 40.4684 39.8707C40.5476 39.8707 40.5943 39.8247 40.614 39.7563L40.9305 38.6121C40.9434 38.574 40.9369 38.5522 40.9168 38.5364L40.8114 38.4611C40.7853 38.4457 40.7652 38.4527 40.7386 38.4908C40.6136 38.6736 40.2452 39.1768 40.1266 39.2986C39.9553 39.4665 39.7039 39.5433 39.5852 39.5582C39.4533 39.5735 39.1496 39.5879 39.0314 39.5879C38.7809 39.5879 38.6228 39.5577 38.517 39.527C38.3718 39.4814 38.2536 39.3293 38.2536 38.9331C38.2536 38.7959 38.2408 38.0485 38.2344 37.6369L38.2267 37.1792C38.4382 37.1792 38.7547 37.1946 38.992 37.2248C39.1372 37.2401 39.2623 37.3466 39.3218 37.4992C39.3544 37.5903 39.4002 37.7587 39.4272 37.8806C39.4405 37.9266 39.4537 37.942 39.4799 37.9346L39.6255 37.9038C39.6649 37.8959 39.6782 37.888 39.6782 37.8499C39.6645 37.6819 39.6388 37.3164 39.6388 37.0118C39.6388 36.8132 39.6388 36.3104 39.652 36.1886C39.658 36.143 39.6388 36.1267 39.6118 36.1267L39.4405 36.1123C39.4139 36.1123 39.3878 36.1272 39.3878 36.1732C39.3878 36.3104 39.3218 36.5006 39.2824 36.5997C39.2032 36.783 39.1239 36.8434 38.9787 36.8746C38.8999 36.8974 38.425 36.9132 38.2267 36.9132L38.2399 34.7086L39.243 34.7393C39.4276 34.7467 39.6053 34.8463 39.7441 34.9379C39.9026 35.0444 40.4422 35.7453 40.4684 35.7908C40.4885 35.8295 40.5086 35.8369 40.5279 35.8295L40.6465 35.7686C40.6731 35.7532 40.6804 35.7304 40.6667 35.6844C40.6401 35.6091 40.3896 34.5714 40.363 34.4723C40.3566 34.4416 40.3433 34.4268 40.3103 34.4268C40.2778 34.4268 40.1523 34.4347 40.0469 34.4347C39.757 34.4347 38.2408 34.45 37.9508 34.45H37.7658C37.2257 34.4575 36.9876 34.4268 36.8432 34.4268ZM44.9539 34.4268C44.924 34.4268 44.9111 34.4416 44.9111 34.4803V34.6863C44.9111 34.7165 44.924 34.7319 44.9539 34.7319H45.2109C45.3308 34.7319 45.4251 34.8542 45.4251 35.1128V37.1183C45.4251 37.8345 45.4251 38.5517 45.4079 39.3145C45.4079 39.52 45.3051 39.5656 45.1595 39.5656H44.9368C44.9111 39.5656 44.8983 39.5884 44.8983 39.6265V39.8019C44.8983 39.8474 44.9111 39.8717 44.9497 39.8717C45.0139 39.8717 45.1724 39.8474 45.8191 39.8474C46.5044 39.8474 46.6372 39.8717 46.7228 39.8717C46.7742 39.8717 46.7956 39.8559 46.7956 39.8019V39.6191C46.7956 39.5879 46.7828 39.5656 46.7399 39.5656H46.4144C46.3074 39.5656 46.2603 39.4279 46.2431 39.2754C46.226 39.1609 46.2131 38.308 46.2131 37.8503V37.4383C46.2859 37.4308 46.4016 37.4229 46.4273 37.4229C46.7014 37.4229 46.8556 37.6294 47.0183 37.8959C47.1254 38.0638 47.3096 38.415 47.3738 38.5522C47.4338 38.674 47.6908 39.2219 47.8107 39.4363C47.8964 39.5958 48.0206 39.8024 48.1019 39.8717C48.2433 39.8633 48.496 39.8474 48.6801 39.8474C49.1042 39.8474 49.2755 39.8717 49.3269 39.8717C49.3654 39.8717 49.3783 39.8474 49.3783 39.7939V39.6335C49.3783 39.6033 49.3654 39.5805 49.3269 39.5805C49.1684 39.5805 48.9842 39.5656 48.86 39.4363C48.7615 39.3289 48.3375 38.6433 48.299 38.5676C48.2433 38.4759 47.8364 37.7587 47.755 37.6369C47.6651 37.5002 47.5452 37.363 47.361 37.2867V37.2555C48.0848 37.1183 48.5859 36.721 48.5859 35.7611C48.5859 35.4714 48.4703 35.1519 48.2304 34.9077C47.9692 34.6328 47.558 34.4268 47.0312 34.4268C46.8342 34.4268 46.226 34.45 45.8577 34.45C45.2109 34.45 45.0011 34.4268 44.9539 34.4268ZM60.3813 34.4268C60.3556 34.4268 60.3427 34.4416 60.3427 34.4803V34.6784C60.3427 34.7175 60.3556 34.7319 60.3941 34.7319H60.7368C60.9209 34.7319 60.9894 34.8077 61.0109 34.9909C61.0151 35.09 61.028 36.4625 61.028 36.6453V37.1792C61.028 37.5908 61.0151 39.2377 61.0023 39.3442C60.9766 39.5503 60.831 39.5656 60.6982 39.5656H60.4369C60.3984 39.5656 60.3813 39.581 60.3813 39.6112V39.8172C60.3813 39.8549 60.3984 39.8707 60.4369 39.8707C60.5012 39.8707 60.7924 39.8484 61.452 39.8484C62.0688 39.8484 62.3343 39.8707 62.4114 39.8707C62.4542 39.8707 62.4799 39.8549 62.4799 39.8098V39.6191C62.4799 39.5815 62.4542 39.5656 62.4285 39.5656H62.1501C61.9917 39.5656 61.8846 39.5349 61.8846 39.2912C61.8846 39.2075 61.8717 37.4536 61.8717 37.3773V36.7825C61.8717 36.6908 61.8846 35.0147 61.8846 34.9379C61.8846 34.7933 61.9917 34.7319 62.1373 34.7319H62.3857C62.4114 34.7319 62.4371 34.717 62.4371 34.671V34.4956C62.4371 34.458 62.4243 34.4268 62.3857 34.4268C62.2958 34.4268 62.0816 34.45 61.452 34.45C60.8053 34.45 60.4626 34.4268 60.3813 34.4268ZM75.0633 34.4268C75.0248 34.4268 75.0119 34.4416 75.0119 34.4723V34.6784C75.0119 34.717 75.0248 34.7319 75.0633 34.7319H75.1833C75.2861 34.7319 75.4317 34.7928 75.5131 34.8998C75.6972 35.1668 76.7637 37.362 76.8708 37.5903V37.9568C76.8708 38.6736 76.8579 39.2689 76.8493 39.3754C76.8451 39.4898 76.7937 39.5656 76.6224 39.5656H76.3482C76.3183 39.5656 76.3054 39.5963 76.3054 39.6265V39.8019C76.3054 39.84 76.3183 39.8717 76.3482 39.8717C76.4082 39.8717 76.6181 39.8474 77.2648 39.8474C77.8601 39.8474 78.1214 39.8717 78.1942 39.8717C78.2285 39.8717 78.2413 39.8474 78.2413 39.7939V39.6191C78.2413 39.5879 78.2285 39.5656 78.1942 39.5656H77.9801C77.8473 39.5656 77.7402 39.5503 77.7188 39.3066C77.7145 39.2229 77.7017 38.7196 77.7017 38.4299V37.4992C77.9501 36.9959 79.0465 35.0444 79.1536 34.9077C79.2564 34.7779 79.4149 34.7319 79.5091 34.7319H79.6547C79.6933 34.7319 79.7061 34.7012 79.7061 34.6551V34.4803C79.7061 34.4416 79.6933 34.4268 79.6547 34.4268C79.5862 34.4268 79.4406 34.45 79.0208 34.45C78.5583 34.45 78.2799 34.4268 78.2156 34.4268C78.1899 34.4268 78.1771 34.4416 78.1771 34.4803V34.671C78.1771 34.7086 78.1899 34.7319 78.2285 34.7319H78.3998C78.5968 34.7319 78.6396 34.8691 78.6268 35.0063C78.6097 35.197 77.7616 36.783 77.5346 37.2104C77.359 36.783 76.5667 35.09 76.5538 34.9533C76.541 34.7928 76.5924 34.7319 76.738 34.7319H76.9093C76.9521 34.7319 76.9607 34.7012 76.9607 34.6551V34.4803C76.9607 34.4416 76.9521 34.4268 76.9093 34.4268C76.8451 34.4268 76.6052 34.45 75.9328 34.45C75.436 34.45 75.119 34.4268 75.0633 34.4268ZM46.5558 34.7017C46.8856 34.7017 47.1897 34.7849 47.4295 35.0296C47.5923 35.2049 47.7165 35.5323 47.7165 35.883C47.7165 36.2332 47.5066 37.1946 46.4787 37.1946C46.3973 37.1946 46.3202 37.1787 46.226 37.1639L46.2431 34.9676C46.2431 34.876 46.2688 34.7849 46.3202 34.7472C46.3716 34.7086 46.453 34.7017 46.5558 34.7017Z" fill="white"/>
</svg>
